<mxfile host="app.diagrams.net" agent="Mozilla/5.0 (Macintosh; Intel Mac OS X 10_15_7) AppleWebKit/537.36 (KHTML, like Gecko) Chrome/134.0.0.0 Safari/537.36" version="26.2.2" pages="2">
  <diagram name="Generic" id="EbZpE4n0TrGbxIEr27ZO">
    <mxGraphModel dx="1428" dy="796" grid="1" gridSize="10" guides="1" tooltips="1" connect="1" arrows="1" fold="1" page="1" pageScale="1" pageWidth="850" pageHeight="1100" math="0" shadow="0">
      <root>
        <mxCell id="0" />
        <mxCell id="1" parent="0" />
        <mxCell id="ly1byu0EOG5V2D16UMVF-2" value="Funções" style="rounded=1;whiteSpace=wrap;html=1;verticalAlign=top;fillColor=#ffcc99;strokeColor=#36393d;fontSize=16;fontStyle=1;fontFamily=Helvetica;sketch=1;jiggle=2;fillStyle=solid;curveFitting=1;align=center;shadow=1;" vertex="1" parent="1">
          <mxGeometry x="105" y="250" width="705" height="310" as="geometry" />
        </mxCell>
        <mxCell id="ly1byu0EOG5V2D16UMVF-31" value="" style="group;shadow=1;" vertex="1" connectable="0" parent="1">
          <mxGeometry x="169.99999999999997" y="320" width="570" height="130" as="geometry" />
        </mxCell>
        <mxCell id="ly1byu0EOG5V2D16UMVF-22" value="Pathfinder" style="whiteSpace=wrap;html=1;rounded=1;sketch=1;jiggle=2;fillStyle=solid;curveFitting=1;align=center;verticalAlign=top;fontFamily=Helvetica;fontSize=16;fontStyle=1;" vertex="1" parent="ly1byu0EOG5V2D16UMVF-31">
          <mxGeometry width="570" height="130" as="geometry" />
        </mxCell>
        <mxCell id="ly1byu0EOG5V2D16UMVF-30" value="" style="group" vertex="1" connectable="0" parent="ly1byu0EOG5V2D16UMVF-31">
          <mxGeometry x="23.470000000000027" y="40" width="523.06" height="70" as="geometry" />
        </mxCell>
        <mxCell id="ly1byu0EOG5V2D16UMVF-23" value="AWS &lt;br&gt;Adapter" style="html=1;whiteSpace=wrap;container=1;recursiveResize=0;collapsible=0;rounded=1;sketch=1;jiggle=2;fillStyle=solid;curveFitting=1;strokeColor=#C73500;align=center;verticalAlign=middle;fontFamily=Helvetica;fontSize=16;fontStyle=1;fillColor=#fa6800;labelBackgroundColor=none;labelBorderColor=none;textShadow=0;fontColor=#000000;glass=0;gradientColor=none;" vertex="1" parent="ly1byu0EOG5V2D16UMVF-30">
          <mxGeometry width="160" height="70" as="geometry" />
        </mxCell>
        <mxCell id="ly1byu0EOG5V2D16UMVF-24" value="" style="triangle;html=1;whiteSpace=wrap;rounded=1;sketch=1;jiggle=2;fillStyle=solid;curveFitting=1;strokeColor=#666666;align=center;verticalAlign=top;fontFamily=Helvetica;fontSize=16;fontColor=#333333;fontStyle=1;fillColor=#f5f5f5;" vertex="1" parent="ly1byu0EOG5V2D16UMVF-23">
          <mxGeometry x="20" y="20" width="20" height="30" as="geometry" />
        </mxCell>
        <mxCell id="ly1byu0EOG5V2D16UMVF-25" value="GCP&lt;br&gt;Adapter" style="html=1;whiteSpace=wrap;container=1;recursiveResize=0;collapsible=0;rounded=1;sketch=1;jiggle=2;fillStyle=solid;curveFitting=1;strokeColor=#006EAF;align=center;verticalAlign=middle;fontFamily=Helvetica;fontSize=16;fontStyle=1;fillColor=#1ba1e2;labelBackgroundColor=none;labelBorderColor=none;textShadow=0;fontColor=#ffffff;" vertex="1" parent="ly1byu0EOG5V2D16UMVF-30">
          <mxGeometry x="181.06" width="160" height="70" as="geometry" />
        </mxCell>
        <mxCell id="ly1byu0EOG5V2D16UMVF-26" value="" style="triangle;html=1;whiteSpace=wrap;rounded=1;sketch=1;jiggle=2;fillStyle=solid;curveFitting=1;strokeColor=#666666;align=center;verticalAlign=top;fontFamily=Helvetica;fontSize=16;fontColor=#333333;fontStyle=1;fillColor=#f5f5f5;" vertex="1" parent="ly1byu0EOG5V2D16UMVF-25">
          <mxGeometry x="20" y="20" width="20" height="30" as="geometry" />
        </mxCell>
        <mxCell id="ly1byu0EOG5V2D16UMVF-27" value="Azure&lt;br&gt;Adapter" style="html=1;whiteSpace=wrap;container=1;recursiveResize=0;collapsible=0;rounded=1;sketch=1;jiggle=2;fillStyle=solid;curveFitting=1;strokeColor=#B09500;align=center;verticalAlign=middle;fontFamily=Helvetica;fontSize=16;fontStyle=1;fillColor=#e3c800;labelBackgroundColor=none;labelBorderColor=none;textShadow=0;fontColor=#000000;" vertex="1" parent="ly1byu0EOG5V2D16UMVF-30">
          <mxGeometry x="363.06" width="160" height="70" as="geometry" />
        </mxCell>
        <mxCell id="ly1byu0EOG5V2D16UMVF-28" value="" style="triangle;html=1;whiteSpace=wrap;rounded=1;sketch=1;jiggle=2;fillStyle=solid;curveFitting=1;strokeColor=#666666;align=center;verticalAlign=top;fontFamily=Helvetica;fontSize=16;fontColor=#333333;fontStyle=1;fillColor=#f5f5f5;" vertex="1" parent="ly1byu0EOG5V2D16UMVF-27">
          <mxGeometry x="20" y="20" width="20" height="30" as="geometry" />
        </mxCell>
        <mxCell id="ly1byu0EOG5V2D16UMVF-33" value="" style="group;shadow=1;" vertex="1" connectable="0" parent="1">
          <mxGeometry x="260.00000000000006" y="29" width="370" height="181" as="geometry" />
        </mxCell>
        <mxCell id="ly1byu0EOG5V2D16UMVF-8" value="Multi-cloud" style="rounded=1;whiteSpace=wrap;html=1;verticalAlign=top;fontSize=16;fontStyle=1;fillColor=#eeeeee;strokeColor=#36393d;sketch=1;curveFitting=1;jiggle=2;fillStyle=solid;" vertex="1" parent="ly1byu0EOG5V2D16UMVF-33">
          <mxGeometry width="370" height="181" as="geometry" />
        </mxCell>
        <mxCell id="ly1byu0EOG5V2D16UMVF-32" value="" style="group" vertex="1" connectable="0" parent="ly1byu0EOG5V2D16UMVF-33">
          <mxGeometry x="46" y="51.5" width="278.00000000000006" height="78" as="geometry" />
        </mxCell>
        <mxCell id="ly1byu0EOG5V2D16UMVF-4" value="" style="points=[[0,0,0],[0.25,0,0],[0.5,0,0],[0.75,0,0],[1,0,0],[0,1,0],[0.25,1,0],[0.5,1,0],[0.75,1,0],[1,1,0],[0,0.25,0],[0,0.5,0],[0,0.75,0],[1,0.25,0],[1,0.5,0],[1,0.75,0]];outlineConnect=0;fontColor=#232F3E;fillColor=#ED7100;strokeColor=#ffffff;dashed=0;verticalLabelPosition=bottom;verticalAlign=top;align=center;html=1;fontSize=12;fontStyle=0;aspect=fixed;shape=mxgraph.aws4.resourceIcon;resIcon=mxgraph.aws4.lambda;" vertex="1" parent="ly1byu0EOG5V2D16UMVF-32">
          <mxGeometry width="78" height="78" as="geometry" />
        </mxCell>
        <mxCell id="ly1byu0EOG5V2D16UMVF-5" value="Cloud&#xa;Functions" style="html=1;verticalAlign=top;labelPosition=center;verticalLabelPosition=bottom;align=center;spacingTop=-6;fontSize=11;fontStyle=1;fontColor=#999999;shape=image;aspect=fixed;imageAspect=0;image=data:image/svg+xml,PHN2ZyB4bWxucz0iaHR0cDovL3d3dy53My5vcmcvMjAwMC9zdmciIHhtbG5zOnY9Imh0dHBzOi8vdmVjdGEuaW8vbmFubyIgd2lkdGg9IjIwIiBoZWlnaHQ9IjE5Ljk4OTk5OTc3MTExODE2NCIgdmlld0JveD0iMCAwIDIwIDE5Ljk4OTk5OTc3MTExODE2NCI+JiN4YTsJPHN0eWxlIHR5cGU9InRleHQvY3NzIj4mI3hhOwkuc3Qwe2ZpbGw6IzQyODVmNDt9JiN4YTsJLnN0MXtmaWxsOiM2NjlkZjY7fSYjeGE7CS5zdDJ7ZmlsbDojYWVjYmZhO30mI3hhOwk8L3N0eWxlPiYjeGE7CTxwYXRoIGNsYXNzPSJzdDEiIGQ9Ik0zIDMuOTlMMCA2LjQydjcuMTNsMyAyLjQ0eiIvPiYjeGE7CTxwYXRoIGNsYXNzPSJzdDAiIGQ9Ik0zIDMuOTlsLTMgNCAzLTJ6bS0zIDhsMyA0di0yeiIvPiYjeGE7CTxwYXRoIGNsYXNzPSJzdDIiIGQ9Ik0wIDE1Ljk5bDQgNCAyLTItNi02em0uMDEtOEw1Ljk5IDJsLTItMkwwIDMuOTl6Ii8+JiN4YTsJPHBhdGggY2xhc3M9InN0MSIgZD0iTTE3IDE2bDMtMi40MlY2LjQ0TDE3IDR6Ii8+JiN4YTsJPHBhdGggY2xhc3M9InN0MCIgZD0iTTE3IDE2bDMtNC0zIDJ6bTMtOGwtMy00djJ6Ii8+JiN4YTsJPGcgY2xhc3M9InN0MiI+JiN4YTsJCTxwYXRoIGQ9Ik0yMCA0bC00LTQtMiAyIDYgNnptLS4wMSA4bC01Ljk4IDUuOTkgMiAyTDIwIDE2eiIvPiYjeGE7CQk8Y2lyY2xlIGN4PSI2IiBjeT0iOS45OSIgcj0iMSIvPiYjeGE7CQk8Y2lyY2xlIGN4PSIxMCIgY3k9IjkuOTkiIHI9IjEiLz4mI3hhOwkJPGNpcmNsZSBjeD0iMTMuOTkiIGN5PSI5Ljk5IiByPSIxIi8+JiN4YTsJPC9nPiYjeGE7PC9zdmc+;" vertex="1" parent="ly1byu0EOG5V2D16UMVF-32">
          <mxGeometry x="104.06" y="9" width="74.12" height="60" as="geometry" />
        </mxCell>
        <mxCell id="ly1byu0EOG5V2D16UMVF-6" value="" style="image;aspect=fixed;html=1;points=[];align=center;fontSize=12;image=img/lib/azure2/compute/Function_Apps.svg;" vertex="1" parent="ly1byu0EOG5V2D16UMVF-32">
          <mxGeometry x="210.00000000000006" y="9" width="68" height="60" as="geometry" />
        </mxCell>
        <mxCell id="ly1byu0EOG5V2D16UMVF-38" style="edgeStyle=orthogonalEdgeStyle;rounded=1;orthogonalLoop=1;jettySize=auto;html=1;fontFamily=Helvetica;fontSize=16;fontColor=#333333;fontStyle=1;strokeWidth=3;curved=0;sketch=1;curveFitting=1;jiggle=2;flowAnimation=0;shadow=1;" edge="1" parent="1" target="ly1byu0EOG5V2D16UMVF-8">
          <mxGeometry relative="1" as="geometry">
            <mxPoint x="170" y="385" as="sourcePoint" />
            <mxPoint x="282" y="120" as="targetPoint" />
            <Array as="points">
              <mxPoint x="70" y="385" />
              <mxPoint x="70" y="120" />
            </Array>
          </mxGeometry>
        </mxCell>
        <mxCell id="ly1byu0EOG5V2D16UMVF-39" style="edgeStyle=orthogonalEdgeStyle;rounded=1;orthogonalLoop=1;jettySize=auto;html=1;fontFamily=Helvetica;fontSize=16;fontColor=#333333;fontStyle=1;strokeWidth=3;curved=0;sketch=1;curveFitting=1;jiggle=2;" edge="1" parent="1" source="ly1byu0EOG5V2D16UMVF-8" target="ly1byu0EOG5V2D16UMVF-22">
          <mxGeometry relative="1" as="geometry">
            <Array as="points">
              <mxPoint x="840" y="111" />
              <mxPoint x="840" y="385" />
            </Array>
          </mxGeometry>
        </mxCell>
        <mxCell id="ly1byu0EOG5V2D16UMVF-17" value="Processamento de imagem" style="label;whiteSpace=wrap;html=1;image=img/clipart/Gear_128x128.png;spacing=0;spacingRight=0;spacingLeft=52;spacingTop=0;labelBackgroundColor=none;perimeterSpacing=0;shadow=0;glass=0;sketch=1;curveFitting=1;jiggle=2;" vertex="1" parent="1">
          <mxGeometry x="170" y="450" width="150" height="60" as="geometry" />
        </mxCell>
        <mxCell id="ly1byu0EOG5V2D16UMVF-18" value="Autenticação" style="label;whiteSpace=wrap;html=1;image=img/clipart/Gear_128x128.png;sketch=1;curveFitting=1;jiggle=2;" vertex="1" parent="1">
          <mxGeometry x="353" y="450" width="140" height="60" as="geometry" />
        </mxCell>
        <mxCell id="ly1byu0EOG5V2D16UMVF-34" value="..." style="text;html=1;align=center;verticalAlign=middle;resizable=0;points=[];autosize=1;strokeColor=none;fillColor=none;fontFamily=Helvetica;fontSize=16;fontColor=#333333;fontStyle=1;" vertex="1" parent="1">
          <mxGeometry x="527" y="465" width="40" height="30" as="geometry" />
        </mxCell>
        <mxCell id="ly1byu0EOG5V2D16UMVF-35" value="Function" style="label;whiteSpace=wrap;html=1;image=img/clipart/Gear_128x128.png;sketch=1;curveFitting=1;jiggle=2;" vertex="1" parent="1">
          <mxGeometry x="600" y="450" width="140" height="60" as="geometry" />
        </mxCell>
      </root>
    </mxGraphModel>
  </diagram>
  <diagram id="YT5PbokPZRasFXHOBEaq" name="Use case 1">
    <mxGraphModel dx="1428" dy="1896" grid="1" gridSize="10" guides="1" tooltips="1" connect="1" arrows="1" fold="1" page="1" pageScale="1" pageWidth="850" pageHeight="1100" math="0" shadow="0">
      <root>
        <mxCell id="0" />
        <mxCell id="1" parent="0" />
        <mxCell id="avSfmySNXGa8fxLHzAec-32" value="" style="group" vertex="1" connectable="0" parent="1">
          <mxGeometry x="550" y="-320" width="240" height="340" as="geometry" />
        </mxCell>
        <mxCell id="avSfmySNXGa8fxLHzAec-29" value="" style="whiteSpace=wrap;html=1;rounded=1;sketch=1;jiggle=2;fillStyle=solid;curveFitting=1;strokeColor=#666666;align=center;verticalAlign=top;fontFamily=Helvetica;fontSize=16;fontColor=#333333;fontStyle=1;labelBackgroundColor=default;fillColor=#f5f5f5;" vertex="1" parent="avSfmySNXGa8fxLHzAec-32">
          <mxGeometry width="240" height="340" as="geometry" />
        </mxCell>
        <mxCell id="avSfmySNXGa8fxLHzAec-3" value="Pathfinder" style="whiteSpace=wrap;html=1;rounded=1;sketch=1;jiggle=2;fillStyle=solid;curveFitting=1;align=center;verticalAlign=top;fontFamily=Helvetica;fontSize=16;fontStyle=1;" vertex="1" parent="avSfmySNXGa8fxLHzAec-32">
          <mxGeometry x="20" y="110" width="200" height="130" as="geometry" />
        </mxCell>
        <mxCell id="avSfmySNXGa8fxLHzAec-5" value="AWS &lt;br&gt;Adapter" style="html=1;whiteSpace=wrap;container=1;recursiveResize=0;collapsible=0;rounded=1;sketch=1;jiggle=2;fillStyle=solid;curveFitting=1;strokeColor=#C73500;align=center;verticalAlign=middle;fontFamily=Helvetica;fontSize=16;fontStyle=1;fillColor=#fa6800;labelBackgroundColor=none;labelBorderColor=none;textShadow=0;fontColor=#000000;glass=0;gradientColor=none;" vertex="1" parent="avSfmySNXGa8fxLHzAec-32">
          <mxGeometry x="43.47000000000003" y="150" width="160" height="70" as="geometry" />
        </mxCell>
        <mxCell id="avSfmySNXGa8fxLHzAec-6" value="" style="triangle;html=1;whiteSpace=wrap;rounded=1;sketch=1;jiggle=2;fillStyle=solid;curveFitting=1;strokeColor=#666666;align=center;verticalAlign=top;fontFamily=Helvetica;fontSize=16;fontColor=#333333;fontStyle=1;fillColor=#f5f5f5;" vertex="1" parent="avSfmySNXGa8fxLHzAec-5">
          <mxGeometry x="20" y="20" width="20" height="30" as="geometry" />
        </mxCell>
        <mxCell id="avSfmySNXGa8fxLHzAec-19" value="Processamento de imagem" style="label;whiteSpace=wrap;html=1;image=img/clipart/Gear_128x128.png;spacing=0;spacingRight=0;spacingLeft=52;spacingTop=0;labelBackgroundColor=none;perimeterSpacing=0;shadow=0;glass=0;sketch=1;curveFitting=1;jiggle=2;" vertex="1" parent="avSfmySNXGa8fxLHzAec-32">
          <mxGeometry x="43.47000000000003" y="230" width="150" height="60" as="geometry" />
        </mxCell>
        <mxCell id="avSfmySNXGa8fxLHzAec-14" value="" style="points=[[0,0,0],[0.25,0,0],[0.5,0,0],[0.75,0,0],[1,0,0],[0,1,0],[0.25,1,0],[0.5,1,0],[0.75,1,0],[1,1,0],[0,0.25,0],[0,0.5,0],[0,0.75,0],[1,0.25,0],[1,0.5,0],[1,0.75,0]];outlineConnect=0;fontColor=#232F3E;fillColor=#ED7100;strokeColor=#ffffff;dashed=0;verticalLabelPosition=bottom;verticalAlign=top;align=center;html=1;fontSize=12;fontStyle=0;aspect=fixed;shape=mxgraph.aws4.resourceIcon;resIcon=mxgraph.aws4.lambda;" vertex="1" parent="avSfmySNXGa8fxLHzAec-32">
          <mxGeometry x="67.23000000000002" y="32" width="78" height="78" as="geometry" />
        </mxCell>
        <mxCell id="avSfmySNXGa8fxLHzAec-26" value="" style="image;aspect=fixed;perimeter=ellipsePerimeter;html=1;align=center;shadow=0;dashed=0;spacingTop=3;image=img/lib/active_directory/generic_server.svg;rounded=1;sketch=1;jiggle=2;fillStyle=solid;curveFitting=1;strokeColor=#666666;verticalAlign=top;fontFamily=Helvetica;fontSize=16;fontColor=#333333;fontStyle=1;labelBackgroundColor=default;fillColor=#f5f5f5;" vertex="1" parent="avSfmySNXGa8fxLHzAec-32">
          <mxGeometry x="151.70000000000005" y="60" width="28.000000000000004" height="50" as="geometry" />
        </mxCell>
        <mxCell id="avSfmySNXGa8fxLHzAec-33" value="" style="group" vertex="1" connectable="0" parent="1">
          <mxGeometry x="580" y="140" width="240" height="340" as="geometry" />
        </mxCell>
        <mxCell id="avSfmySNXGa8fxLHzAec-30" value="" style="whiteSpace=wrap;html=1;rounded=1;sketch=1;jiggle=2;fillStyle=solid;curveFitting=1;strokeColor=#666666;align=center;verticalAlign=top;fontFamily=Helvetica;fontSize=16;fontColor=#333333;fontStyle=1;labelBackgroundColor=default;fillColor=#f5f5f5;" vertex="1" parent="avSfmySNXGa8fxLHzAec-33">
          <mxGeometry width="240" height="340" as="geometry" />
        </mxCell>
        <mxCell id="avSfmySNXGa8fxLHzAec-23" value="Pathfinder" style="whiteSpace=wrap;html=1;rounded=1;sketch=1;jiggle=2;fillStyle=solid;curveFitting=1;align=center;verticalAlign=top;fontFamily=Helvetica;fontSize=16;fontStyle=1;" vertex="1" parent="avSfmySNXGa8fxLHzAec-33">
          <mxGeometry x="27.529999999999973" y="110" width="200" height="130" as="geometry" />
        </mxCell>
        <mxCell id="avSfmySNXGa8fxLHzAec-20" value="Autenticação" style="label;whiteSpace=wrap;html=1;image=img/clipart/Gear_128x128.png;sketch=1;curveFitting=1;jiggle=2;" vertex="1" parent="avSfmySNXGa8fxLHzAec-33">
          <mxGeometry x="50" y="230" width="140" height="60" as="geometry" />
        </mxCell>
        <mxCell id="avSfmySNXGa8fxLHzAec-7" value="GCP&lt;br&gt;Adapter" style="html=1;whiteSpace=wrap;container=1;recursiveResize=0;collapsible=0;rounded=1;sketch=1;jiggle=2;fillStyle=solid;curveFitting=1;strokeColor=#006EAF;align=center;verticalAlign=middle;fontFamily=Helvetica;fontSize=16;fontStyle=1;fillColor=#1ba1e2;labelBackgroundColor=none;labelBorderColor=none;textShadow=0;fontColor=#ffffff;" vertex="1" parent="avSfmySNXGa8fxLHzAec-33">
          <mxGeometry x="50" y="148" width="160" height="70" as="geometry" />
        </mxCell>
        <mxCell id="avSfmySNXGa8fxLHzAec-8" value="" style="triangle;html=1;whiteSpace=wrap;rounded=1;sketch=1;jiggle=2;fillStyle=solid;curveFitting=1;strokeColor=#666666;align=center;verticalAlign=top;fontFamily=Helvetica;fontSize=16;fontColor=#333333;fontStyle=1;fillColor=#f5f5f5;" vertex="1" parent="avSfmySNXGa8fxLHzAec-7">
          <mxGeometry x="20" y="20" width="20" height="30" as="geometry" />
        </mxCell>
        <mxCell id="avSfmySNXGa8fxLHzAec-15" value="Cloud&#xa;Functions" style="html=1;verticalAlign=top;labelPosition=center;verticalLabelPosition=bottom;align=center;spacingTop=-6;fontSize=11;fontStyle=1;fontColor=#999999;shape=image;aspect=fixed;imageAspect=0;image=data:image/svg+xml,PHN2ZyB4bWxucz0iaHR0cDovL3d3dy53My5vcmcvMjAwMC9zdmciIHhtbG5zOnY9Imh0dHBzOi8vdmVjdGEuaW8vbmFubyIgd2lkdGg9IjIwIiBoZWlnaHQ9IjE5Ljk4OTk5OTc3MTExODE2NCIgdmlld0JveD0iMCAwIDIwIDE5Ljk4OTk5OTc3MTExODE2NCI+JiN4YTsJPHN0eWxlIHR5cGU9InRleHQvY3NzIj4mI3hhOwkuc3Qwe2ZpbGw6IzQyODVmNDt9JiN4YTsJLnN0MXtmaWxsOiM2NjlkZjY7fSYjeGE7CS5zdDJ7ZmlsbDojYWVjYmZhO30mI3hhOwk8L3N0eWxlPiYjeGE7CTxwYXRoIGNsYXNzPSJzdDEiIGQ9Ik0zIDMuOTlMMCA2LjQydjcuMTNsMyAyLjQ0eiIvPiYjeGE7CTxwYXRoIGNsYXNzPSJzdDAiIGQ9Ik0zIDMuOTlsLTMgNCAzLTJ6bS0zIDhsMyA0di0yeiIvPiYjeGE7CTxwYXRoIGNsYXNzPSJzdDIiIGQ9Ik0wIDE1Ljk5bDQgNCAyLTItNi02em0uMDEtOEw1Ljk5IDJsLTItMkwwIDMuOTl6Ii8+JiN4YTsJPHBhdGggY2xhc3M9InN0MSIgZD0iTTE3IDE2bDMtMi40MlY2LjQ0TDE3IDR6Ii8+JiN4YTsJPHBhdGggY2xhc3M9InN0MCIgZD0iTTE3IDE2bDMtNC0zIDJ6bTMtOGwtMy00djJ6Ii8+JiN4YTsJPGcgY2xhc3M9InN0MiI+JiN4YTsJCTxwYXRoIGQ9Ik0yMCA0bC00LTQtMiAyIDYgNnptLS4wMSA4bC01Ljk4IDUuOTkgMiAyTDIwIDE2eiIvPiYjeGE7CQk8Y2lyY2xlIGN4PSI2IiBjeT0iOS45OSIgcj0iMSIvPiYjeGE7CQk8Y2lyY2xlIGN4PSIxMCIgY3k9IjkuOTkiIHI9IjEiLz4mI3hhOwkJPGNpcmNsZSBjeD0iMTMuOTkiIGN5PSI5Ljk5IiByPSIxIi8+JiN4YTsJPC9nPiYjeGE7PC9zdmc+;" vertex="1" parent="avSfmySNXGa8fxLHzAec-33">
          <mxGeometry x="67.52999999999997" y="20" width="74.12" height="60" as="geometry" />
        </mxCell>
        <mxCell id="avSfmySNXGa8fxLHzAec-27" value="" style="image;aspect=fixed;perimeter=ellipsePerimeter;html=1;align=center;shadow=0;dashed=0;spacingTop=3;image=img/lib/active_directory/generic_server.svg;rounded=1;sketch=1;jiggle=2;fillStyle=solid;curveFitting=1;strokeColor=#666666;verticalAlign=top;fontFamily=Helvetica;fontSize=16;fontColor=#333333;fontStyle=1;labelBackgroundColor=default;fillColor=#f5f5f5;" vertex="1" parent="avSfmySNXGa8fxLHzAec-33">
          <mxGeometry x="157.52999999999997" y="55" width="28.000000000000004" height="50" as="geometry" />
        </mxCell>
        <mxCell id="avSfmySNXGa8fxLHzAec-34" value="" style="group" vertex="1" connectable="0" parent="1">
          <mxGeometry x="580" y="540" width="240" height="340" as="geometry" />
        </mxCell>
        <mxCell id="avSfmySNXGa8fxLHzAec-31" value="" style="whiteSpace=wrap;html=1;rounded=1;sketch=1;jiggle=2;fillStyle=solid;curveFitting=1;strokeColor=#666666;align=center;verticalAlign=top;fontFamily=Helvetica;fontSize=16;fontColor=#333333;fontStyle=1;labelBackgroundColor=default;fillColor=#f5f5f5;" vertex="1" parent="avSfmySNXGa8fxLHzAec-34">
          <mxGeometry width="240" height="340" as="geometry" />
        </mxCell>
        <mxCell id="avSfmySNXGa8fxLHzAec-24" value="Pathfinder" style="whiteSpace=wrap;html=1;rounded=1;sketch=1;jiggle=2;fillStyle=solid;curveFitting=1;align=center;verticalAlign=top;fontFamily=Helvetica;fontSize=16;fontStyle=1;" vertex="1" parent="avSfmySNXGa8fxLHzAec-34">
          <mxGeometry x="30" y="105" width="200" height="130" as="geometry" />
        </mxCell>
        <mxCell id="avSfmySNXGa8fxLHzAec-22" value="Salvar Compra" style="label;whiteSpace=wrap;html=1;image=img/clipart/Gear_128x128.png;sketch=1;curveFitting=1;jiggle=2;" vertex="1" parent="avSfmySNXGa8fxLHzAec-34">
          <mxGeometry x="55" y="227" width="150" height="60" as="geometry" />
        </mxCell>
        <mxCell id="avSfmySNXGa8fxLHzAec-9" value="Azure&lt;br&gt;Adapter" style="html=1;whiteSpace=wrap;container=1;recursiveResize=0;collapsible=0;rounded=1;sketch=1;jiggle=2;fillStyle=solid;curveFitting=1;strokeColor=#B09500;align=center;verticalAlign=middle;fontFamily=Helvetica;fontSize=16;fontStyle=1;fillColor=#e3c800;labelBackgroundColor=none;labelBorderColor=none;textShadow=0;fontColor=#000000;" vertex="1" parent="avSfmySNXGa8fxLHzAec-34">
          <mxGeometry x="50" y="145" width="160" height="70" as="geometry" />
        </mxCell>
        <mxCell id="avSfmySNXGa8fxLHzAec-10" value="" style="triangle;html=1;whiteSpace=wrap;rounded=1;sketch=1;jiggle=2;fillStyle=solid;curveFitting=1;strokeColor=#666666;align=center;verticalAlign=top;fontFamily=Helvetica;fontSize=16;fontColor=#333333;fontStyle=1;fillColor=#f5f5f5;" vertex="1" parent="avSfmySNXGa8fxLHzAec-9">
          <mxGeometry x="20" y="20" width="20" height="30" as="geometry" />
        </mxCell>
        <mxCell id="avSfmySNXGa8fxLHzAec-16" value="" style="image;aspect=fixed;html=1;points=[];align=center;fontSize=12;image=img/lib/azure2/compute/Function_Apps.svg;" vertex="1" parent="avSfmySNXGa8fxLHzAec-34">
          <mxGeometry x="62" y="20" width="88" height="77.65" as="geometry" />
        </mxCell>
        <mxCell id="avSfmySNXGa8fxLHzAec-28" value="" style="image;aspect=fixed;perimeter=ellipsePerimeter;html=1;align=center;shadow=0;dashed=0;spacingTop=3;image=img/lib/active_directory/generic_server.svg;rounded=1;sketch=1;jiggle=2;fillStyle=solid;curveFitting=1;strokeColor=#666666;verticalAlign=top;fontFamily=Helvetica;fontSize=16;fontColor=#333333;fontStyle=1;labelBackgroundColor=default;fillColor=#f5f5f5;" vertex="1" parent="avSfmySNXGa8fxLHzAec-34">
          <mxGeometry x="150" y="55" width="28.000000000000004" height="50" as="geometry" />
        </mxCell>
        <mxCell id="avSfmySNXGa8fxLHzAec-39" value="" style="group" vertex="1" connectable="0" parent="1">
          <mxGeometry x="150" y="29.99999999999999" width="121" height="108.80000000000001" as="geometry" />
        </mxCell>
        <mxCell id="avSfmySNXGa8fxLHzAec-35" value="" style="verticalLabelPosition=bottom;html=1;verticalAlign=top;strokeWidth=1;align=center;outlineConnect=0;dashed=0;outlineConnect=0;shape=mxgraph.aws3d.application;fillColor=#4286c5;strokeColor=#57A2D8;aspect=fixed;rounded=1;sketch=1;jiggle=2;fillStyle=solid;curveFitting=1;fontFamily=Helvetica;fontSize=16;fontColor=#333333;fontStyle=1;labelBackgroundColor=default;" vertex="1" parent="avSfmySNXGa8fxLHzAec-39">
          <mxGeometry x="27" width="62" height="68.8" as="geometry" />
        </mxCell>
        <mxCell id="avSfmySNXGa8fxLHzAec-36" value="" style="verticalLabelPosition=bottom;html=1;verticalAlign=top;strokeWidth=1;align=center;outlineConnect=0;dashed=0;outlineConnect=0;shape=mxgraph.aws3d.application2;fillColor=#86E83A;strokeColor=#B0F373;aspect=fixed;rounded=1;sketch=1;jiggle=2;fillStyle=solid;curveFitting=1;fontFamily=Helvetica;fontSize=16;fontColor=#333333;fontStyle=1;labelBackgroundColor=default;" vertex="1" parent="avSfmySNXGa8fxLHzAec-39">
          <mxGeometry y="40" width="62" height="53" as="geometry" />
        </mxCell>
        <mxCell id="avSfmySNXGa8fxLHzAec-38" value="" style="verticalLabelPosition=bottom;html=1;verticalAlign=top;strokeWidth=1;align=center;outlineConnect=0;dashed=0;outlineConnect=0;shape=mxgraph.aws3d.application2;fillColor=#86E83A;strokeColor=#B0F373;aspect=fixed;rounded=1;sketch=1;jiggle=2;fillStyle=solid;curveFitting=1;fontFamily=Helvetica;fontSize=16;fontColor=#333333;fontStyle=1;labelBackgroundColor=default;" vertex="1" parent="avSfmySNXGa8fxLHzAec-39">
          <mxGeometry x="59" y="40.900000000000006" width="62" height="53" as="geometry" />
        </mxCell>
        <mxCell id="avSfmySNXGa8fxLHzAec-37" value="Generic Application" style="verticalLabelPosition=bottom;html=1;verticalAlign=top;strokeWidth=1;align=center;outlineConnect=0;dashed=0;outlineConnect=0;shape=mxgraph.aws3d.application;fillColor=#4286c5;strokeColor=#57A2D8;aspect=fixed;rounded=1;sketch=1;jiggle=2;fillStyle=solid;curveFitting=1;fontFamily=Helvetica;fontSize=16;fontColor=#333333;fontStyle=1;labelBackgroundColor=default;" vertex="1" parent="avSfmySNXGa8fxLHzAec-39">
          <mxGeometry x="31" y="40" width="62" height="68.8" as="geometry" />
        </mxCell>
        <mxCell id="avSfmySNXGa8fxLHzAec-45" style="edgeStyle=orthogonalEdgeStyle;shape=connector;curved=0;rounded=1;orthogonalLoop=1;jettySize=auto;html=1;strokeColor=default;strokeWidth=3;align=center;verticalAlign=middle;fontFamily=Helvetica;fontSize=16;fontColor=#333333;fontStyle=1;labelBackgroundColor=default;endArrow=classic;jumpStyle=arc;sketch=1;curveFitting=1;jiggle=2;jumpSize=6;" edge="1" parent="1" source="avSfmySNXGa8fxLHzAec-40" target="avSfmySNXGa8fxLHzAec-30">
          <mxGeometry relative="1" as="geometry">
            <Array as="points">
              <mxPoint x="380" y="-90" />
              <mxPoint x="380" y="300" />
            </Array>
          </mxGeometry>
        </mxCell>
        <mxCell id="avSfmySNXGa8fxLHzAec-40" value="Web app" style="pointerEvents=1;shadow=0;dashed=0;html=1;strokeColor=none;fillColor=#505050;labelPosition=center;verticalLabelPosition=bottom;verticalAlign=top;outlineConnect=0;align=center;shape=mxgraph.office.concepts.application_web;rounded=1;fillStyle=solid;fontFamily=Helvetica;fontSize=16;fontColor=#333333;fontStyle=1;labelBackgroundColor=default;" vertex="1" parent="1">
          <mxGeometry x="111.2" y="-162.63" width="166" height="145.25" as="geometry" />
        </mxCell>
        <mxCell id="avSfmySNXGa8fxLHzAec-50" style="edgeStyle=orthogonalEdgeStyle;shape=connector;curved=0;rounded=1;sketch=1;jiggle=2;curveFitting=1;orthogonalLoop=1;jettySize=auto;html=1;strokeColor=default;strokeWidth=3;align=center;verticalAlign=middle;fontFamily=Helvetica;fontSize=16;fontColor=#333333;fontStyle=1;labelBackgroundColor=default;endArrow=classic;" edge="1" parent="1" target="avSfmySNXGa8fxLHzAec-31">
          <mxGeometry relative="1" as="geometry">
            <mxPoint x="260" y="290" as="sourcePoint" />
            <Array as="points">
              <mxPoint x="330" y="290" />
              <mxPoint x="330" y="670" />
            </Array>
          </mxGeometry>
        </mxCell>
        <mxCell id="avSfmySNXGa8fxLHzAec-43" value="Mobile App" style="image;sketch=0;aspect=fixed;html=1;points=[];align=center;fontSize=12;image=img/lib/mscae/App_Service_Mobile_App.svg;rounded=1;jiggle=2;fillStyle=solid;curveFitting=1;strokeColor=#666666;verticalAlign=top;fontFamily=Helvetica;fontColor=#333333;fontStyle=1;labelBackgroundColor=default;fillColor=#f5f5f5;" vertex="1" parent="1">
          <mxGeometry x="150" y="190" width="88.4" height="130" as="geometry" />
        </mxCell>
        <mxCell id="avSfmySNXGa8fxLHzAec-44" value="" style="endArrow=classic;html=1;rounded=1;sketch=1;jiggle=2;curveFitting=1;strokeColor=default;strokeWidth=3;align=center;verticalAlign=middle;fontFamily=Helvetica;fontSize=16;fontColor=#333333;fontStyle=1;labelBackgroundColor=default;edgeStyle=orthogonalEdgeStyle;curved=0;" edge="1" parent="1" target="avSfmySNXGa8fxLHzAec-62">
          <mxGeometry width="50" height="50" relative="1" as="geometry">
            <mxPoint x="280" y="250" as="sourcePoint" />
            <mxPoint x="450" y="160" as="targetPoint" />
            <Array as="points">
              <mxPoint x="280" y="251" />
              <mxPoint x="440" y="251" />
              <mxPoint x="440" y="-10" />
            </Array>
          </mxGeometry>
        </mxCell>
        <mxCell id="avSfmySNXGa8fxLHzAec-46" style="edgeStyle=orthogonalEdgeStyle;shape=connector;curved=0;rounded=1;sketch=1;jiggle=2;curveFitting=1;orthogonalLoop=1;jettySize=auto;html=1;strokeColor=default;strokeWidth=3;align=center;verticalAlign=middle;fontFamily=Helvetica;fontSize=16;fontColor=#333333;fontStyle=1;labelBackgroundColor=default;endArrow=classic;" edge="1" parent="1" target="avSfmySNXGa8fxLHzAec-29">
          <mxGeometry relative="1" as="geometry">
            <mxPoint x="290" y="100" as="sourcePoint" />
            <Array as="points">
              <mxPoint x="402" y="104" />
              <mxPoint x="402" y="-150" />
            </Array>
          </mxGeometry>
        </mxCell>
        <mxCell id="avSfmySNXGa8fxLHzAec-47" value="" style="edgeStyle=orthogonalEdgeStyle;curved=0;rounded=1;sketch=1;jiggle=2;curveFitting=1;orthogonalLoop=1;jettySize=auto;html=1;strokeColor=default;strokeWidth=3;align=center;verticalAlign=middle;fontFamily=Helvetica;fontSize=16;fontColor=#333333;fontStyle=1;labelBackgroundColor=default;endArrow=classic;" edge="1" parent="1" source="avSfmySNXGa8fxLHzAec-31" target="avSfmySNXGa8fxLHzAec-30">
          <mxGeometry relative="1" as="geometry">
            <Array as="points">
              <mxPoint x="740" y="520" />
              <mxPoint x="740" y="520" />
            </Array>
          </mxGeometry>
        </mxCell>
        <mxCell id="avSfmySNXGa8fxLHzAec-49" style="edgeStyle=orthogonalEdgeStyle;shape=connector;curved=0;rounded=1;sketch=1;jiggle=2;curveFitting=1;orthogonalLoop=1;jettySize=auto;html=1;strokeColor=default;strokeWidth=3;align=center;verticalAlign=middle;fontFamily=Helvetica;fontSize=16;fontColor=#333333;fontStyle=1;labelBackgroundColor=default;endArrow=classic;" edge="1" parent="1" source="avSfmySNXGa8fxLHzAec-30" target="avSfmySNXGa8fxLHzAec-31">
          <mxGeometry relative="1" as="geometry">
            <Array as="points">
              <mxPoint x="660" y="520" />
              <mxPoint x="660" y="520" />
            </Array>
          </mxGeometry>
        </mxCell>
        <mxCell id="avSfmySNXGa8fxLHzAec-61" value="" style="group" vertex="1" connectable="0" parent="1">
          <mxGeometry x="690" y="-260.01" width="240" height="340" as="geometry" />
        </mxCell>
        <mxCell id="avSfmySNXGa8fxLHzAec-62" value="" style="whiteSpace=wrap;html=1;rounded=1;sketch=1;jiggle=2;fillStyle=solid;curveFitting=1;strokeColor=#666666;align=center;verticalAlign=top;fontFamily=Helvetica;fontSize=16;fontColor=#333333;fontStyle=1;labelBackgroundColor=default;fillColor=#f5f5f5;" vertex="1" parent="avSfmySNXGa8fxLHzAec-61">
          <mxGeometry width="240" height="340" as="geometry" />
        </mxCell>
        <mxCell id="avSfmySNXGa8fxLHzAec-63" value="Pathfinder" style="whiteSpace=wrap;html=1;rounded=1;sketch=1;jiggle=2;fillStyle=solid;curveFitting=1;align=center;verticalAlign=top;fontFamily=Helvetica;fontSize=16;fontStyle=1;" vertex="1" parent="avSfmySNXGa8fxLHzAec-61">
          <mxGeometry x="27.529999999999973" y="110" width="200" height="130" as="geometry" />
        </mxCell>
        <mxCell id="avSfmySNXGa8fxLHzAec-64" value="Processamento de imagem" style="label;whiteSpace=wrap;html=1;image=img/clipart/Gear_128x128.png;sketch=1;curveFitting=1;jiggle=2;" vertex="1" parent="avSfmySNXGa8fxLHzAec-61">
          <mxGeometry x="50" y="230" width="150" height="60" as="geometry" />
        </mxCell>
        <mxCell id="avSfmySNXGa8fxLHzAec-65" value="GCP&lt;br&gt;Adapter" style="html=1;whiteSpace=wrap;container=1;recursiveResize=0;collapsible=0;rounded=1;sketch=1;jiggle=2;fillStyle=solid;curveFitting=1;strokeColor=#006EAF;align=center;verticalAlign=middle;fontFamily=Helvetica;fontSize=16;fontStyle=1;fillColor=#1ba1e2;labelBackgroundColor=none;labelBorderColor=none;textShadow=0;fontColor=#ffffff;" vertex="1" parent="avSfmySNXGa8fxLHzAec-61">
          <mxGeometry x="50" y="148" width="160" height="70" as="geometry" />
        </mxCell>
        <mxCell id="avSfmySNXGa8fxLHzAec-66" value="" style="triangle;html=1;whiteSpace=wrap;rounded=1;sketch=1;jiggle=2;fillStyle=solid;curveFitting=1;strokeColor=#666666;align=center;verticalAlign=top;fontFamily=Helvetica;fontSize=16;fontColor=#333333;fontStyle=1;fillColor=#f5f5f5;" vertex="1" parent="avSfmySNXGa8fxLHzAec-65">
          <mxGeometry x="20" y="20" width="20" height="30" as="geometry" />
        </mxCell>
        <mxCell id="avSfmySNXGa8fxLHzAec-67" value="Cloud&#xa;Functions" style="html=1;verticalAlign=top;labelPosition=center;verticalLabelPosition=bottom;align=center;spacingTop=-6;fontSize=11;fontStyle=1;fontColor=#999999;shape=image;aspect=fixed;imageAspect=0;image=data:image/svg+xml,PHN2ZyB4bWxucz0iaHR0cDovL3d3dy53My5vcmcvMjAwMC9zdmciIHhtbG5zOnY9Imh0dHBzOi8vdmVjdGEuaW8vbmFubyIgd2lkdGg9IjIwIiBoZWlnaHQ9IjE5Ljk4OTk5OTc3MTExODE2NCIgdmlld0JveD0iMCAwIDIwIDE5Ljk4OTk5OTc3MTExODE2NCI+JiN4YTsJPHN0eWxlIHR5cGU9InRleHQvY3NzIj4mI3hhOwkuc3Qwe2ZpbGw6IzQyODVmNDt9JiN4YTsJLnN0MXtmaWxsOiM2NjlkZjY7fSYjeGE7CS5zdDJ7ZmlsbDojYWVjYmZhO30mI3hhOwk8L3N0eWxlPiYjeGE7CTxwYXRoIGNsYXNzPSJzdDEiIGQ9Ik0zIDMuOTlMMCA2LjQydjcuMTNsMyAyLjQ0eiIvPiYjeGE7CTxwYXRoIGNsYXNzPSJzdDAiIGQ9Ik0zIDMuOTlsLTMgNCAzLTJ6bS0zIDhsMyA0di0yeiIvPiYjeGE7CTxwYXRoIGNsYXNzPSJzdDIiIGQ9Ik0wIDE1Ljk5bDQgNCAyLTItNi02em0uMDEtOEw1Ljk5IDJsLTItMkwwIDMuOTl6Ii8+JiN4YTsJPHBhdGggY2xhc3M9InN0MSIgZD0iTTE3IDE2bDMtMi40MlY2LjQ0TDE3IDR6Ii8+JiN4YTsJPHBhdGggY2xhc3M9InN0MCIgZD0iTTE3IDE2bDMtNC0zIDJ6bTMtOGwtMy00djJ6Ii8+JiN4YTsJPGcgY2xhc3M9InN0MiI+JiN4YTsJCTxwYXRoIGQ9Ik0yMCA0bC00LTQtMiAyIDYgNnptLS4wMSA4bC01Ljk4IDUuOTkgMiAyTDIwIDE2eiIvPiYjeGE7CQk8Y2lyY2xlIGN4PSI2IiBjeT0iOS45OSIgcj0iMSIvPiYjeGE7CQk8Y2lyY2xlIGN4PSIxMCIgY3k9IjkuOTkiIHI9IjEiLz4mI3hhOwkJPGNpcmNsZSBjeD0iMTMuOTkiIGN5PSI5Ljk5IiByPSIxIi8+JiN4YTsJPC9nPiYjeGE7PC9zdmc+;" vertex="1" parent="avSfmySNXGa8fxLHzAec-61">
          <mxGeometry x="67.52999999999997" y="20" width="74.12" height="60" as="geometry" />
        </mxCell>
        <mxCell id="avSfmySNXGa8fxLHzAec-68" value="" style="image;aspect=fixed;perimeter=ellipsePerimeter;html=1;align=center;shadow=0;dashed=0;spacingTop=3;image=img/lib/active_directory/generic_server.svg;rounded=1;sketch=1;jiggle=2;fillStyle=solid;curveFitting=1;strokeColor=#666666;verticalAlign=top;fontFamily=Helvetica;fontSize=16;fontColor=#333333;fontStyle=1;labelBackgroundColor=default;fillColor=#f5f5f5;" vertex="1" parent="avSfmySNXGa8fxLHzAec-61">
          <mxGeometry x="157.52999999999997" y="55" width="28.000000000000004" height="50" as="geometry" />
        </mxCell>
      </root>
    </mxGraphModel>
  </diagram>
</mxfile>
